<svg xmlns="http://www.w3.org/2000/svg" width="640" height="800" viewBox="0 0 640 800">
  <defs>
    <filter id="gimg16pvv1" x="-20%" y="-20%" width="140%" height="140%">
      <feGaussianBlur stdDeviation="2.5"/>
    </filter>
  </defs>
  <rect width="640" height="800" fill="oklch(0.2 0.05 220)"/>
  <g>
    <circle cx="272.6" cy="240.2" r="187.2" fill="oklch(0.33 0.09 225)" opacity="0.85"/>
    <rect x="252.1" y="451.8" width="323.8" height="404.8" fill="oklch(0.52 0.1 210)" rx="97.1" opacity="0.8"/>
    <path d="M227.4 667.9 C 303.1 200.1, 530.4 200.1, 606.1 667.9 Z" fill="oklch(0.8 0.05 190)" opacity="0.75"/>
    <circle cx="234.1" cy="201.7" r="66.6" fill="oklch(0.2 0.05 220)" opacity="0.85"/>
    <rect x="69.1" y="62.6" width="319.0" height="398.7" fill="oklch(0.52 0.1 210)" rx="95.7" opacity="0.8"/>
    <path d="M61.8 673.9 C 165.2 109.3, 475.1 109.3, 578.4 673.9 Z" fill="oklch(0.33 0.09 225)" opacity="0.75"/>
    <path d="M0 624 Q 192 496 352 656 T 640 560 V 800 H 0 Z" fill="oklch(0.52 0.1 210)" opacity="0.55"/>
    <circle cx="499.20000000000005" cy="176" r="70" fill="oklch(0.8 0.05 190)" opacity="0.9"/>
  </g>
  <g filter="url(#gimg16pvv1)" opacity="0.35">
    <circle cx="272.6" cy="240.2" r="187.2" fill="oklch(0.33 0.09 225)" opacity="0.85"/>
    <rect x="252.1" y="451.8" width="323.8" height="404.8" fill="oklch(0.52 0.1 210)" rx="97.1" opacity="0.8"/>
  </g>
</svg>