<svg xmlns="http://www.w3.org/2000/svg" width="640" height="800" viewBox="0 0 640 800">
  <defs>
    <filter id="gimg6jywt" x="-20%" y="-20%" width="140%" height="140%">
      <feGaussianBlur stdDeviation="2.5"/>
    </filter>
  </defs>
  <rect width="640" height="800" fill="oklch(0.2 0.05 220)"/>
  <g>
    <circle cx="239.5" cy="233.5" r="97.9" fill="oklch(0.33 0.09 225)" opacity="0.85"/>
    <rect x="445.1" y="548.6" width="107.9" height="134.9" fill="oklch(0.52 0.1 210)" rx="32.4" opacity="0.8"/>
    <path d="M8.0 752.1 C 118.1 -5.9, 448.3 -5.9, 558.3 752.1 Z" fill="oklch(0.8 0.05 190)" opacity="0.75"/>
    <circle cx="378.8" cy="349.9" r="63.0" fill="oklch(0.2 0.05 220)" opacity="0.85"/>
    <rect x="453.9" y="219.3" width="178.6" height="223.2" fill="oklch(0.52 0.1 210)" rx="53.6" opacity="0.8"/>
    <path d="M10.8 697.3 C 103.0 -118.2, 379.4 -118.2, 471.6 697.3 Z" fill="oklch(0.33 0.09 225)" opacity="0.75"/>
    <circle cx="146.8" cy="553.4" r="87.8" fill="oklch(0.33 0.09 225)" opacity="0.85"/>
    <path d="M0 624 Q 192 496 352 656 T 640 560 V 800 H 0 Z" fill="oklch(0.52 0.1 210)" opacity="0.55"/>
    <circle cx="499.20000000000005" cy="176" r="70" fill="oklch(0.8 0.05 190)" opacity="0.9"/>
  </g>
  <g filter="url(#gimg6jywt)" opacity="0.35">
    <circle cx="239.5" cy="233.5" r="97.9" fill="oklch(0.33 0.09 225)" opacity="0.85"/>
    <rect x="445.1" y="548.6" width="107.9" height="134.9" fill="oklch(0.52 0.1 210)" rx="32.4" opacity="0.8"/>
  </g>
</svg>